<svg width="64" height="1024" viewBox="0 0 64 1024" fill="none" xmlns="http://www.w3.org/2000/svg" xmlns:xlink="http://www.w3.org/1999/xlink" xmlns:c2pa="http://c2pa.org/manifest"><metadata><c2pa:manifest>AAAWgmp1bWIAAAAeanVtZGMycGEAEQAQgAAAqgA4m3EDYzJwYQAAABZcanVtYgAAAEdqdW1kYzJtYQARABCAAACqADibcQN1cm46YzJwYTpiNzJjOGZlNy0wNjExLTQ2MjQtYjBmMC0zNGQ3ZDU4YTlmYTEAAAADl2p1bWIAAAApanVtZGMyYXMAEQAQgAAAqgA4m3EDYzJwYS5hc3NlcnRpb25zAAAAALxqdW1iAAAARGp1bWRjYm9yABEAEIAAAKoAOJtxE2MycGEuaW5ncmVkaWVudC52MwAAAAAYYzJzaF51llrNWubc56lC19JmVscAAABwY2JvcqNpZGM6Zm9ybWF0bWltYWdlL3N2Zyt4bWxqaW5zdGFuY2VJRHgseG1wOmlpZDphOGFkZjYyZi0wNjE5LTQxMDEtYTNkMy02ODI1M2VhMzQ0ZGRscmVsYXRpb25zaGlwaHBhcmVudE9mAAAB4mp1bWIAAABBanVtZGNib3IAEQAQgAAAqgA4m3ETYzJwYS5hY3Rpb25zLnYyAAAAABhjMnNo0+/35J2mLOOSI1T2sDOnQwAAAZljYm9yomdhY3Rpb25zgqJmYWN0aW9ua2MycGEub3BlbmVkanBhcmFtZXRlcnOha2luZ3JlZGllbnRzgaJjdXJseC1zZWxmI2p1bWJmPWMycGEuYXNzZXJ0aW9ucy9jMnBhLmluZ3JlZGllbnQudjNkaGFzaFggcWftwYzfJZLmeVwzERx9VWw5LeMIjNNzUxO3dL5dsMykZmFjdGlvbngdY29tLmFudGhyb3BpYy5jbGF1ZGUucHJvdmlkZWRqcGFyYW1ldGVyc6F4H2NvbS5hbnRocm9waWMub3JpZ2luLWNvbmZpZGVuY2VndW5rbm93bmtkZXNjcmlwdGlvbnhmQ2xhdWRlIHByb3ZpZGVkIHRoaXMgZmlsZSBhdCB0aGUgcmVxdWVzdCBvZiBhIHVzZXIgYW5kIG1heSBoYXZlIGNyZWF0ZWQgb3IgbW9kaWZpZWQgdGhlIGZpbGUgY29udGVudHMubXNvZnR3YXJlQWdlbnShZG5hbWVmQ2xhdWRlcmFsbEFjdGlvbnNJbmNsdWRlZPUAAADIanVtYgAAAEBqdW1kY2JvcgARABCAAACqADibcRNjMnBhLmhhc2guZGF0YQAAAAAYYzJzaIFybiSpMBd2XJxb3MziJOwAAACAY2JvcqVjYWxnZnNoYTI1NmNwYWRNAAAAAAAAAAAAAAAAAGRoYXNoWCB+xB+xXncbU5iX8Vbnjt6KxXTJNWG6Rz3iQigeWfIOuWRuYW1lbmp1bWJmIG1hbmlmZXN0amV4Y2x1c2lvbnOBomVzdGFydBjNZmxlbmd0aBkeBAAAAj5qdW1iAAAAJ2p1bWRjMmNsABEAEIAAAKoAOJtxA2MycGEuY2xhaW0udjIAAAACD2Nib3KlY2FsZ2ZzaGEyNTZpc2lnbmF0dXJleE1zZWxmI2p1bWJmPS9jMnBhL3VybjpjMnBhOmI3MmM4ZmU3LTA2MTEtNDYyNC1iMGYwLTM0ZDdkNThhOWZhMS9jMnBhLnNpZ25hdHVyZWppbnN0YW5jZUlEeCx4bXA6aWlkOjMyNGE3YzY0LTc3YjctNDlmOS05ZDYwLWJlNDM2MjRkZDJmY3JjcmVhdGVkX2Fzc2VydGlvbnODomN1cmx4LXNlbGYjanVtYmY9YzJwYS5hc3NlcnRpb25zL2MycGEuaW5ncmVkaWVudC52M2RoYXNoWCBxZ+3BjN8lkuZ5XDMRHH1VbDkt4wiM03NTE7d0vl2wzKJjdXJseCpzZWxmI2p1bWJmPWMycGEuYXNzZXJ0aW9ucy9jMnBhLmFjdGlvbnMudjJkaGFzaFggW7vNXidrpaKLtIyy7e2/CChBxj/Gw3YH85PdNK8h9xeiY3VybHgpc2VsZiNqdW1iZj1jMnBhLmFzc2VydGlvbnMvYzJwYS5oYXNoLmRhdGFkaGFzaFggiF7e4cejhM6fgyz0T9u/+e1t0uE7Ur66EQV0QaM0o3B0Y2xhaW1fZ2VuZXJhdG9yX2luZm+jZG5hbWVvQW50aHJvcGljIEZpbGVzZ3ZlcnNpb25lMS4wLjBrc3BlY1ZlcnNpb25lMi40LjAAABA4anVtYgAAAChqdW1kYzJjcwARABCAAACqADibcQNjMnBhLnNpZ25hdHVyZQAAABAIY2JvctKEWQISogEmGCFZAgowggIGMIIBjaADAgECAhRA5aAK7sI50L64g/oGQgU9Z1UTADAKBggqhkjOPQQDAzBJMRcwFQYDVQQKEw5BbnRocm9waWMsIFBCQzEuMCwGA1UEAxMlQW50aHJvcGljIENvbnRlbnQgQ3JlZGVudGlhbHMgUm9vdCBDQTAeFw0yNjA4MDcxODQzNTZaFw0yODA4MDYxOTQzNTZaMEQxFzAVBgNVBAoTDkFudGhyb3BpYywgUEJDMSkwJwYDVQQDEyBBbnRocm9waWMgQ2xhdWRlIENvbnRlbnQgU2lnbmluZzBZMBMGByqGSM49AgEGCCqGSM49AwEHA0IABJh6CmvLUBgFFNU0vUKlOVtE6djd17L5SuwX0LemFisBM3dkd/3cyjxFA3Qo5S46fX0/ihY0VZ7mfb9KF703t5OjWDBWMA4GA1UdDwEB/wQEAwIHgDAVBgNVHSUEDjAMBgorBgEEAYPoXgIBMAwGA1UdEwEB/wQCMAAwHwYDVR0jBBgwFoAUzlHiBIFOZFsj+OPEz5o+nMHXXMIwCgYIKoZIzj0EAwMDZwAwZAIwMXMdFJ4BetLLVY7ORuE9noqbbAZOZn/aArXyTwFAZfKrPzxF2vPoJNf1+UCdg1XGAjBwX1zd9WGqYkqmL5SFqw1QySjr1zJfpJM9+1rdDwSPLMOPOjKuiXjoU/pUUeG9RwmhY3BhZFkNngAAAAAAAAAAAAAAAAAAAAAAAAAAAAAAAAAAAAAAAAAAAAAAAAAAAAAAAAAAAAAAAAAAAAAAAAAAAAAAAAAAAAAAAAAAAAAAAAAAAAAAAAAAAAAAAAAAAAAAAAAAAAAAAAAAAAAAAAAAAAAAAAAAAAAAAAAAAAAAAAAAAAAAAAAAAAAAAAAAAAAAAAAAAAAAAAAAAAAAAAAAAAAAAAAAAAAAAAAAAAAAAAAAAAAAAAAAAAAAAAAAAAAAAAAAAAAAAAAAAAAAAAAAAAAAAAAAAAAAAAAAAAAAAAAAAAAAAAAAAAAAAAAAAAAAAAAAAAAAAAAAAAAAAAAAAAAAAAAAAAAAAAAAAAAAAAAAAAAAAAAAAAAAAAAAAAAAAAAAAAAAAAAAAAAAAAAAAAAAAAAAAAAAAAAAAAAAAAAAAAAAAAAAAAAAAAAAAAAAAAAAAAAAAAAAAAAAAAAAAAAAAAAAAAAAAAAAAAAAAAAAAAAAAAAAAAAAAAAAAAAAAAAAAAAAAAAAAAAAAAAAAAAAAAAAAAAAAAAAAAAAAAAAAAAAAAAAAAAAAAAAAAAAAAAAAAAAAAAAAAAAAAAAAAAAAAAAAAAAAAAAAAAAAAAAAAAAAAAAAAAAAAAAAAAAAAAAAAAAAAAAAAAAAAAAAAAAAAAAAAAAAAAAAAAAAAAAAAAAAAAAAAAAAAAAAAAAAAAAAAAAAAAAAAAAAAAAAAAAAAAAAAAAAAAAAAAAAAAAAAAAAAAAAAAAAAAAAAAAAAAAAAAAAAAAAAAAAAAAAAAAAAAAAAAAAAAAAAAAAAAAAAAAAAAAAAAAAAAAAAAAAAAAAAAAAAAAAAAAAAAAAAAAAAAAAAAAAAAAAAAAAAAAAAAAAAAAAAAAAAAAAAAAAAAAAAAAAAAAAAAAAAAAAAAAAAAAAAAAAAAAAAAAAAAAAAAAAAAAAAAAAAAAAAAAAAAAAAAAAAAAAAAAAAAAAAAAAAAAAAAAAAAAAAAAAAAAAAAAAAAAAAAAAAAAAAAAAAAAAAAAAAAAAAAAAAAAAAAAAAAAAAAAAAAAAAAAAAAAAAAAAAAAAAAAAAAAAAAAAAAAAAAAAAAAAAAAAAAAAAAAAAAAAAAAAAAAAAAAAAAAAAAAAAAAAAAAAAAAAAAAAAAAAAAAAAAAAAAAAAAAAAAAAAAAAAAAAAAAAAAAAAAAAAAAAAAAAAAAAAAAAAAAAAAAAAAAAAAAAAAAAAAAAAAAAAAAAAAAAAAAAAAAAAAAAAAAAAAAAAAAAAAAAAAAAAAAAAAAAAAAAAAAAAAAAAAAAAAAAAAAAAAAAAAAAAAAAAAAAAAAAAAAAAAAAAAAAAAAAAAAAAAAAAAAAAAAAAAAAAAAAAAAAAAAAAAAAAAAAAAAAAAAAAAAAAAAAAAAAAAAAAAAAAAAAAAAAAAAAAAAAAAAAAAAAAAAAAAAAAAAAAAAAAAAAAAAAAAAAAAAAAAAAAAAAAAAAAAAAAAAAAAAAAAAAAAAAAAAAAAAAAAAAAAAAAAAAAAAAAAAAAAAAAAAAAAAAAAAAAAAAAAAAAAAAAAAAAAAAAAAAAAAAAAAAAAAAAAAAAAAAAAAAAAAAAAAAAAAAAAAAAAAAAAAAAAAAAAAAAAAAAAAAAAAAAAAAAAAAAAAAAAAAAAAAAAAAAAAAAAAAAAAAAAAAAAAAAAAAAAAAAAAAAAAAAAAAAAAAAAAAAAAAAAAAAAAAAAAAAAAAAAAAAAAAAAAAAAAAAAAAAAAAAAAAAAAAAAAAAAAAAAAAAAAAAAAAAAAAAAAAAAAAAAAAAAAAAAAAAAAAAAAAAAAAAAAAAAAAAAAAAAAAAAAAAAAAAAAAAAAAAAAAAAAAAAAAAAAAAAAAAAAAAAAAAAAAAAAAAAAAAAAAAAAAAAAAAAAAAAAAAAAAAAAAAAAAAAAAAAAAAAAAAAAAAAAAAAAAAAAAAAAAAAAAAAAAAAAAAAAAAAAAAAAAAAAAAAAAAAAAAAAAAAAAAAAAAAAAAAAAAAAAAAAAAAAAAAAAAAAAAAAAAAAAAAAAAAAAAAAAAAAAAAAAAAAAAAAAAAAAAAAAAAAAAAAAAAAAAAAAAAAAAAAAAAAAAAAAAAAAAAAAAAAAAAAAAAAAAAAAAAAAAAAAAAAAAAAAAAAAAAAAAAAAAAAAAAAAAAAAAAAAAAAAAAAAAAAAAAAAAAAAAAAAAAAAAAAAAAAAAAAAAAAAAAAAAAAAAAAAAAAAAAAAAAAAAAAAAAAAAAAAAAAAAAAAAAAAAAAAAAAAAAAAAAAAAAAAAAAAAAAAAAAAAAAAAAAAAAAAAAAAAAAAAAAAAAAAAAAAAAAAAAAAAAAAAAAAAAAAAAAAAAAAAAAAAAAAAAAAAAAAAAAAAAAAAAAAAAAAAAAAAAAAAAAAAAAAAAAAAAAAAAAAAAAAAAAAAAAAAAAAAAAAAAAAAAAAAAAAAAAAAAAAAAAAAAAAAAAAAAAAAAAAAAAAAAAAAAAAAAAAAAAAAAAAAAAAAAAAAAAAAAAAAAAAAAAAAAAAAAAAAAAAAAAAAAAAAAAAAAAAAAAAAAAAAAAAAAAAAAAAAAAAAAAAAAAAAAAAAAAAAAAAAAAAAAAAAAAAAAAAAAAAAAAAAAAAAAAAAAAAAAAAAAAAAAAAAAAAAAAAAAAAAAAAAAAAAAAAAAAAAAAAAAAAAAAAAAAAAAAAAAAAAAAAAAAAAAAAAAAAAAAAAAAAAAAAAAAAAAAAAAAAAAAAAAAAAAAAAAAAAAAAAAAAAAAAAAAAAAAAAAAAAAAAAAAAAAAAAAAAAAAAAAAAAAAAAAAAAAAAAAAAAAAAAAAAAAAAAAAAAAAAAAAAAAAAAAAAAAAAAAAAAAAAAAAAAAAAAAAAAAAAAAAAAAAAAAAAAAAAAAAAAAAAAAAAAAAAAAAAAAAAAAAAAAAAAAAAAAAAAAAAAAAAAAAAAAAAAAAAAAAAAAAAAAAAAAAAAAAAAAAAAAAAAAAAAAAAAAAAAAAAAAAAAAAAAAAAAAAAAAAAAAAAAAAAAAAAAAAAAAAAAAAAAAAAAAAAAAAAAAAAAAAAAAAAAAAAAAAAAAAAAAAAAAAAAAAAAAAAAAAAAAAAAAAAAAAAAAAAAAAAAAAAAAAAAAAAAAAAAAAAAAAAAAAAAAAAAAAAAAAAAAAAAAAAAAAAAAAAAAAAAAAAAAAAAAAAAAAAAAAAAAAAAAAAAAAAAAAAAAAAAAAAAAAAAAAAAAAAAAAAAAAAAAAAAAAAAAAAAAAAAAAAAAAAAAAAAAAAAAAAAAAAAAAAAAAAAAAAAAAAAAAAAAAAAAAAAAAAAAAAAAAAAAAAAAAAAAAAAAAAAAAAAAAAAAAAAAAAAAAAAAAAAAAAAAAAAAAAAAAAAAAAAAAAAAAAAAAAAAAAAAAAAAAAAAAAAAAAAAAAAAAAAAAAAAAAAAAAAAAAAAAAAAAAAAAAAAAAAAAAAAAAAAAAAAAAAAAAAAAAAAAAAAAAAAAAAAAAAAAAAAAAAAAAAAAAAAAAAAAAAAAAAAAAAAAAAAAAAAAAAAAAAAAAAAAAAAAAAAAAAAAAAAAAAAAAAAAAAAAAAAAAAAAAAAAAAAAAAAAAAAAAAAAAAAAAAAAAAAAAAAAAAAAAAAAAAAAAAAAAAAAAAAAAAAAAAAAAAAAAAAAAAAAAAAAAAAAAAAAAAAAAAAAAAAAAAAAAAAAAAAAAAAAAAAAAAAAAAAAAAAAAAAAAAAAAAAAAAAAAAAAAAAAAAAAAAAAAAAAAAAAAAAAAAAAAAAAAAAAAAAAAAAAAAAAAAAAAAAAAAAAAAAAAAAAAAAAAAAAAAAAAAAAAAAAAAAAAAAAAAAAAAAAAAAAAAAAAAAAAAAAAAAAAAAAAAAAAAAAAAAAAAAAAAAAAAAAAAAAAAAAAAAAAAAAAAAAAAAAAAAAAAAAAAAAAAAAAAAAAAAAAAAAAAAAAAAAAAAAAAAAAAAAAAAAAAAAAAAAAAAAAAAAAAAAAAAAAAAAAAAAAAAAAAAAAAAAAAAAAAAAAAAAAAAAAAAAAAAAAAAAAAAAAAAAAAAAAAAAAAAAAAAAAAAAAAAAAAAAAAAAAAAAAAAAAAAAAAAAAAAAAAAAAAAAAAAAAAAAAAAAAAAAAAAAAAAAAAAAAAAAAAAAAAAAAAAAAAAAAAAAAAAAAAAAAAAAAAAAAAAAAAAAAAAAAAAAAAAAAAAAAAAAAAAAAAAAAAAAAAAAAAAAAAAAAAAAAAAAAAAAAAAAAAAAAAAAAAAAAAAAAAAAAAAAAAAAAAAAAAAAAAAAAAAAAAAAAAAAAAAAAAAAAAAAAAAAAAAAAAAAAAAAAAAAAAAAAAAAAAAAAAAAAAAAAAAAAAAAAAAAAAAAAAAAAAAAAAAAAAAAAAAAAAAAAAAAAAAAAAAAAAAAAAAAAAAAAAAAAAAAAAAAAAAAAAAAAAAAAAAAAAAAAAAAAAAAAAAAAAAAAAAAAAAAAAAAAAAAAAAAAAAAAAAAAAAAAAAAAAAAAAAAAAAAAAAAAAAAAAAAAAAAAAAAAAAAAAAAAAAAAAAAAAAAAAAAAAAAAAAAAAAAAAAAAAAAAAAAAAAAAAAAAAAAAAAAAAAAAAAAAAAAAAAAAAAAAAAAAAAAAAAAAAAAAAAAAAAAAAAAAAAAAAAAAAAAAPZYQNd3GEYuDUVvynrpieMkWITglW4T1YZEF6WAnMVCC49DkPfV/NGc+g3FQdRfhT/QlOa0YBqOZxcfn1K2BWUWS5Q=</c2pa:manifest></metadata>
<g clip-path="url(#clip0_2110_81587)">
<rect width="64" height="1024" fill="#1E1F22"></rect>
<g filter="url(#filter0_f_2110_81587)">
<circle cx="-78.7175" cy="95.2825" r="142.282" fill="#004353" fill-opacity="0.6"></circle>
</g>
<path d="M15.75 45.7188V53.3805C15.75 54.8203 16.9293 55.9812 18.3691 55.9582L25.271 55.848C26.0093 55.8363 26.7069 55.5086 27.1874 54.948L47.6289 31.0991C48.0293 30.6319 48.2496 30.0366 48.2496 29.4214V22.3281C48.2496 20.9043 47.0953 19.75 45.6715 19.75H38.7947C38.0513 19.75 37.3439 20.0711 36.8545 20.6305L16.3879 44.0208C15.9766 44.4907 15.75 45.0938 15.75 45.7184V45.7188Z" fill="#3BEA62"></path>
<path d="M15.75 46.633V53.4216C15.75 54.8455 16.9043 55.9997 18.3281 55.9997H26.1816C26.3065 55.9997 26.4315 55.9907 26.5553 55.9724L49.7957 52.5674C51.0617 52.3818 52 51.2959 52 50.0166V40.3933C52 38.9691 50.8453 37.8148 49.4211 37.8152L37.856 37.8179C37.59 37.8179 37.3255 37.8593 37.0724 37.9402L17.5441 44.1768C16.4758 44.5182 15.7504 45.5112 15.7504 46.6327L15.75 46.633Z" fill="url(#paint0_linear_2110_81587)"></path>
<path d="M12 18.5785V39.9079C12 40.9442 12.6207 41.8798 13.5754 42.2829L36.9634 52.1562C37.2872 52.2929 37.6357 52.3621 37.9872 52.3589L49.4425 52.2652C50.8581 52.2535 51.9995 51.1027 51.9995 49.6871V38.6462C51.9995 38.1427 51.8523 37.6505 51.5757 37.2298L38.3829 17.1617C37.9063 16.4363 37.0966 16 36.2287 16H14.5781C13.1543 16 12 17.1543 12 18.5781V18.5785Z" fill="url(#paint1_linear_2110_81587)"></path>
<path d="M44.4997 23.5H19.5V48.4997H44.4997V23.5Z" fill="black"></path>
<path d="M30.7775 33.7865C31.1927 34.5256 31.7642 35.1064 32.4923 35.5283V35.5267C33.2204 35.949 34.0333 36.1599 34.9309 36.1599C35.6903 36.1599 36.3868 36.0193 37.0212 35.738C37.6552 35.4568 38.1836 35.0627 38.6055 34.5556C39.0274 34.0486 39.3098 33.467 39.4528 32.8103H37.5368C37.4118 33.1498 37.2255 33.4482 36.9774 33.7049C36.7298 33.9619 36.4317 34.1596 36.0833 34.2978C35.7348 34.4365 35.3551 34.5056 34.9442 34.5056C34.3903 34.5056 33.8899 34.3674 33.4434 34.0904C32.997 33.8135 32.6474 33.433 32.395 32.9482C32.1427 32.4639 32.0165 31.9178 32.0165 31.3104C32.0165 30.703 32.1427 30.1573 32.395 29.6725C32.6474 29.1881 32.997 28.8073 33.4434 28.5303C33.8903 28.2534 34.3903 28.1151 34.9442 28.1151C35.3551 28.1151 35.7348 28.1846 36.0833 28.3229C36.4313 28.4616 36.7298 28.6592 36.9774 28.9159C37.2255 29.1729 37.4118 29.4709 37.5368 29.8104H39.4528C39.3098 29.1537 39.0274 28.5721 38.6055 28.0651C38.1833 27.5581 37.6552 27.1639 37.0212 26.8827C36.3868 26.6014 35.6903 26.4608 34.9309 26.4608C34.0329 26.4608 33.22 26.6721 32.4923 27.094C31.7646 27.5159 31.1927 28.0967 30.7775 28.8358C30.3622 29.5748 30.1545 30.3998 30.1545 31.3111C30.1545 32.2225 30.3622 33.0475 30.7775 33.7865Z" fill="white"></path>
<path d="M22.001 26.6213H29.5239V28.2694H26.6834V36.0001H24.8545V28.2694H22.0006L22.001 26.6213Z" fill="white"></path>
<path d="M32.6249 43.5H22.625V45.375H32.6249V43.5Z" fill="white"></path>
<rect x="14" y="80" width="36" height="36" rx="6" fill="#868A91" fill-opacity="0.3"></rect>
<path d="M25.0996 90.75H29.6104C29.7441 90.75 29.8729 90.8033 29.9668 90.8984L32.0664 93.0264L32.2861 93.25H38.5C39.4665 93.25 40.25 94.0335 40.25 95V102.667C40.2498 103.617 39.5734 104.25 38.9004 104.25H25.0996C24.4266 104.25 23.7502 103.617 23.75 102.667V92.333C23.7502 91.3826 24.4266 90.7502 25.0996 90.75Z" stroke="white" stroke-width="1.5"></path>
<path d="M13.0254 129V121.954H15.7695C17.1514 121.954 18.1084 122.882 18.1084 124.264V124.273C18.1084 125.65 17.1514 126.593 15.7695 126.593H14.1191V129H13.0254ZM15.4961 122.877H14.1191V125.675H15.4961C16.4434 125.675 16.9951 125.162 16.9951 124.278V124.269C16.9951 123.39 16.4434 122.877 15.4961 122.877ZM19.3975 129V123.697H20.457V124.498H20.5352C20.7256 123.937 21.2188 123.604 21.9268 123.604C22.0977 123.604 22.2832 123.629 22.3906 123.653V124.63C22.2002 124.591 22.0195 124.566 21.8193 124.566C21.0088 124.566 20.457 125.064 20.457 125.831V129H19.3975ZM25.5107 129.103C23.9531 129.103 23.001 128.062 23.001 126.354V126.344C23.001 124.64 23.958 123.595 25.5107 123.595C27.0586 123.595 28.0156 124.635 28.0156 126.344V126.354C28.0156 128.062 27.0635 129.103 25.5107 129.103ZM25.5107 128.219C26.4189 128.219 26.9365 127.525 26.9365 126.354V126.344C26.9365 125.167 26.4189 124.479 25.5107 124.479C24.5977 124.479 24.085 125.167 24.085 126.344V126.354C24.085 127.53 24.5977 128.219 25.5107 128.219ZM29.8223 122.75C29.4561 122.75 29.1582 122.452 29.1582 122.091C29.1582 121.725 29.4561 121.427 29.8223 121.427C30.1885 121.427 30.4863 121.725 30.4863 122.091C30.4863 122.452 30.1885 122.75 29.8223 122.75ZM28.6309 130.816C28.5527 130.816 28.46 130.812 28.3965 130.812V129.942C28.4453 129.942 28.4941 129.942 28.543 129.942C29.085 129.942 29.2949 129.757 29.2949 129.225V123.697H30.3496V129.229C30.3496 130.318 29.7832 130.816 28.6309 130.816ZM34.124 129.103C32.5713 129.103 31.6338 128.043 31.6338 126.363V126.358C31.6338 124.703 32.5908 123.595 34.0703 123.595C35.5498 123.595 36.458 124.664 36.458 126.256V126.627H32.6982C32.7178 127.643 33.2744 128.233 34.1484 128.233C34.8271 128.233 35.2324 127.896 35.3594 127.623L35.3789 127.584L36.3994 127.579L36.3896 127.623C36.2139 128.321 35.4814 129.103 34.124 129.103ZM34.0752 124.464C33.3525 124.464 32.8057 124.957 32.7129 125.87H35.4082C35.3252 124.923 34.793 124.464 34.0752 124.464ZM39.9492 129.103C38.4014 129.103 37.4541 128.048 37.4541 126.334V126.324C37.4541 124.645 38.3965 123.595 39.9443 123.595C41.2773 123.595 42.0732 124.347 42.2197 125.377V125.401L41.2041 125.406L41.1992 125.392C41.082 124.869 40.6523 124.479 39.9492 124.479C39.0654 124.479 38.5332 125.182 38.5332 126.324V126.334C38.5332 127.506 39.0752 128.219 39.9492 128.219C40.6133 128.219 41.0234 127.916 41.1943 127.345L41.2041 127.32H42.2197L42.21 127.364C42.0195 128.395 41.2627 129.103 39.9492 129.103ZM45.501 129.034C44.334 129.034 43.8555 128.624 43.8555 127.604V124.532H43.0254V123.697H43.8555V122.359H44.9346V123.697H46.0723V124.532H44.9346V127.35C44.9346 127.921 45.1494 128.155 45.6719 128.155C45.833 128.155 45.9258 128.15 46.0723 128.136V128.98C45.9014 129.01 45.7061 129.034 45.501 129.034ZM49.1582 129.103C47.8789 129.103 47.0684 128.502 46.9658 127.613V127.608H48.0254L48.0303 127.613C48.1621 128.014 48.5479 128.282 49.1777 128.282C49.832 128.282 50.2861 127.984 50.2861 127.55V127.54C50.2861 127.208 50.0371 126.983 49.4219 126.842L48.5771 126.646C47.5762 126.417 47.1123 125.963 47.1123 125.187V125.182C47.1123 124.259 47.9717 123.595 49.1729 123.595C50.3838 123.595 51.1602 124.2 51.2529 125.064V125.069H50.2422V125.06C50.1396 124.688 49.7637 124.41 49.168 124.41C48.5869 124.41 48.167 124.698 48.167 125.123V125.133C48.167 125.465 48.4111 125.67 49.0068 125.812L49.8467 126.002C50.8672 126.241 51.3555 126.676 51.3555 127.442V127.452C51.3555 128.434 50.418 129.103 49.1582 129.103Z" fill="white"></path>
<path d="M26.4921 169.308V154.655C26.4921 154.143 27.0545 153.83 27.4901 154.099L39.3248 161.425C39.7378 161.681 39.7378 162.282 39.3248 162.537L27.4901 169.864C27.0545 170.133 26.4921 169.82 26.4921 169.308Z" stroke="white" stroke-width="1.5"></path>
<path d="M18.0449 193V185.954H20.877C22.2002 185.954 22.9961 186.628 22.9961 187.707V187.717C22.9961 188.449 22.4541 189.108 21.7607 189.226V189.309C22.7129 189.411 23.3477 190.085 23.3477 191.003V191.013C23.3477 192.248 22.4443 193 20.9404 193H18.0449ZM20.623 186.848H19.1387V188.952H20.4375C21.4043 188.952 21.9072 188.591 21.9072 187.907V187.897C21.9072 187.233 21.4336 186.848 20.623 186.848ZM20.6572 189.787H19.1387V192.106H20.7207C21.707 192.106 22.2295 191.701 22.2295 190.944V190.935C22.2295 190.178 21.6875 189.787 20.6572 189.787ZM26.3994 193.103C25.2031 193.103 24.583 192.385 24.583 191.13V187.697H25.6426V190.881C25.6426 191.76 25.9648 192.194 26.7412 192.194C27.5908 192.194 28.0449 191.662 28.0449 190.808V187.697H29.0996V193H28.0449V192.199H27.9619C27.708 192.771 27.1709 193.103 26.3994 193.103ZM31.1797 186.75C30.8135 186.75 30.5156 186.452 30.5156 186.091C30.5156 185.725 30.8135 185.427 31.1797 185.427C31.541 185.427 31.8438 185.725 31.8438 186.091C31.8438 186.452 31.541 186.75 31.1797 186.75ZM30.6475 193V187.697H31.7021V193H30.6475ZM33.2939 193V185.617H34.3535V193H33.2939ZM37.8643 193.088C36.5312 193.088 35.667 192.019 35.667 190.354V190.344C35.667 188.664 36.5166 187.604 37.8643 187.604C38.5918 187.604 39.2119 187.966 39.4951 188.537H39.5781V185.617H40.6328V193H39.5781V192.165H39.4951C39.1875 192.746 38.6064 193.088 37.8643 193.088ZM38.167 192.185C39.0508 192.185 39.5928 191.486 39.5928 190.354V190.344C39.5928 189.211 39.0459 188.513 38.167 188.513C37.2783 188.513 36.7461 189.206 36.7461 190.344V190.354C36.7461 191.491 37.2783 192.185 38.167 192.185ZM44.1387 193.103C42.8594 193.103 42.0488 192.502 41.9463 191.613V191.608H43.0059L43.0107 191.613C43.1426 192.014 43.5283 192.282 44.1582 192.282C44.8125 192.282 45.2666 191.984 45.2666 191.55V191.54C45.2666 191.208 45.0176 190.983 44.4023 190.842L43.5576 190.646C42.5566 190.417 42.0928 189.963 42.0928 189.187V189.182C42.0928 188.259 42.9521 187.595 44.1533 187.595C45.3643 187.595 46.1406 188.2 46.2334 189.064V189.069H45.2227V189.06C45.1201 188.688 44.7441 188.41 44.1484 188.41C43.5674 188.41 43.1475 188.698 43.1475 189.123V189.133C43.1475 189.465 43.3916 189.67 43.9873 189.812L44.8271 190.002C45.8477 190.241 46.3359 190.676 46.3359 191.442V191.452C46.3359 192.434 45.3984 193.103 44.1387 193.103Z" fill="white"></path>
<path d="M29.3459 219.75H34.6545C35.6504 219.75 35.9699 219.76 36.2385 219.853C36.5012 219.943 36.7412 220.091 36.9397 220.285C37.1428 220.484 37.2938 220.766 37.7395 221.658L39.636 225.449C39.8102 225.797 39.8638 225.909 39.9016 226.022C39.9386 226.132 39.9656 226.245 39.9817 226.36C39.9981 226.477 40.0002 226.602 40.0002 226.992V228.8C40.0002 229.548 39.9997 230.063 39.967 230.463C39.9351 230.854 39.8753 231.069 39.7952 231.226C39.6154 231.579 39.3286 231.866 38.9758 232.045C38.8185 232.125 38.6043 232.185 38.2131 232.217C37.8131 232.25 37.2974 232.25 36.55 232.25H27.4504C26.7031 232.25 26.1874 232.25 25.7874 232.217C25.396 232.185 25.1811 232.125 25.0237 232.045C24.6711 231.865 24.384 231.579 24.2043 231.226C24.1243 231.069 24.0654 230.854 24.0334 230.463C24.0008 230.063 24.0002 229.548 24.0002 228.8V226.992C24.0002 226.602 24.0023 226.477 24.0188 226.36C24.0349 226.245 24.0609 226.132 24.0979 226.022C24.1357 225.909 24.1902 225.797 24.3645 225.449L26.26 221.658C26.7057 220.766 26.8577 220.484 27.0608 220.285C27.2593 220.091 27.4984 219.943 27.761 219.853C28.0297 219.76 28.3493 219.75 29.3459 219.75Z" stroke="white" stroke-width="1.5" stroke-linecap="round" stroke-linejoin="round"></path>
<g data-figma-bg-blur-radius="4">
<rect x="32" y="206" width="20" height="14" rx="7" fill="#5A5D63" fill-opacity="0.6"></rect>
<path d="M39.457 217.176C37.9531 217.176 36.6445 216.106 36.6445 213.567V213.558C36.6445 211.185 37.7139 209.778 39.4863 209.778C40.7803 209.778 41.7471 210.545 41.9717 211.624L41.9814 211.678H40.7461L40.7266 211.629C40.541 211.136 40.1064 210.813 39.4863 210.813C38.3682 210.813 37.8945 211.907 37.8408 213.255C37.8408 213.309 37.8359 213.362 37.8359 213.416H37.9336C38.1924 212.859 38.8076 212.366 39.7744 212.366C41.127 212.366 42.0742 213.353 42.0742 214.69V214.7C42.0742 216.131 40.9854 217.176 39.457 217.176ZM38.0557 214.715C38.0557 215.521 38.666 216.15 39.4473 216.15C40.2285 216.15 40.8438 215.53 40.8438 214.744V214.734C40.8438 213.919 40.2627 213.333 39.4619 213.333C38.666 213.333 38.0557 213.909 38.0557 214.705V214.715ZM43.4902 217V209.598H44.7061V213.851H44.7891L46.7568 211.663H48.1631L46.0146 213.919L48.3096 217H46.8447L45.1309 214.69L44.7061 215.125V217H43.4902Z" fill="white"></path>
</g>
<path d="M15.4326 257L17.9766 249.954H19.1582L21.7021 257H20.5498L19.915 255.096H17.2197L16.5801 257H15.4326ZM18.5234 251.189L17.5127 254.217H19.6221L18.6064 251.189H18.5234ZM24.7539 258.87C23.4062 258.87 22.5762 258.279 22.4492 257.396L22.459 257.386H23.5283L23.5332 257.396C23.6211 257.762 24.0508 258.021 24.7686 258.021C25.6426 258.021 26.1602 257.61 26.1602 256.888V255.843H26.082C25.7598 256.419 25.1738 256.741 24.4463 256.741C23.084 256.741 22.2441 255.691 22.2441 254.197V254.188C22.2441 252.674 23.0889 251.604 24.4658 251.604C25.208 251.604 25.7842 251.971 26.0918 252.566H26.1553V251.697H27.21V256.893C27.21 258.099 26.2578 258.87 24.7539 258.87ZM24.7393 255.867C25.6377 255.867 26.1797 255.184 26.1797 254.192V254.183C26.1797 253.196 25.6328 252.503 24.7393 252.503C23.8359 252.503 23.3281 253.196 23.3281 254.183V254.192C23.3281 255.179 23.8359 255.867 24.7393 255.867ZM30.96 257.103C29.4072 257.103 28.4697 256.043 28.4697 254.363V254.358C28.4697 252.703 29.4268 251.595 30.9062 251.595C32.3857 251.595 33.2939 252.664 33.2939 254.256V254.627H29.5342C29.5537 255.643 30.1104 256.233 30.9844 256.233C31.6631 256.233 32.0684 255.896 32.1953 255.623L32.2148 255.584L33.2354 255.579L33.2256 255.623C33.0498 256.321 32.3174 257.103 30.96 257.103ZM30.9111 252.464C30.1885 252.464 29.6416 252.957 29.5488 253.87H32.2441C32.1611 252.923 31.6289 252.464 30.9111 252.464ZM34.5537 257V251.697H35.6133V252.503H35.6914C35.9502 251.937 36.458 251.595 37.2295 251.595C38.416 251.595 39.0703 252.303 39.0703 253.567V257H38.0156V253.816C38.0156 252.938 37.6494 252.503 36.873 252.503C36.0967 252.503 35.6133 253.035 35.6133 253.89V257H34.5537ZM42.5518 257.034C41.3848 257.034 40.9062 256.624 40.9062 255.604V252.532H40.0762V251.697H40.9062V250.359H41.9854V251.697H43.123V252.532H41.9854V255.35C41.9854 255.921 42.2002 256.155 42.7227 256.155C42.8838 256.155 42.9766 256.15 43.123 256.136V256.98C42.9521 257.01 42.7568 257.034 42.5518 257.034ZM46.209 257.103C44.9297 257.103 44.1191 256.502 44.0166 255.613V255.608H45.0762L45.0811 255.613C45.2129 256.014 45.5986 256.282 46.2285 256.282C46.8828 256.282 47.3369 255.984 47.3369 255.55V255.54C47.3369 255.208 47.0879 254.983 46.4727 254.842L45.6279 254.646C44.627 254.417 44.1631 253.963 44.1631 253.187V253.182C44.1631 252.259 45.0225 251.595 46.2236 251.595C47.4346 251.595 48.2109 252.2 48.3037 253.064V253.069H47.293V253.06C47.1904 252.688 46.8145 252.41 46.2188 252.41C45.6377 252.41 45.2178 252.698 45.2178 253.123V253.133C45.2178 253.465 45.4619 253.67 46.0576 253.812L46.8975 254.002C47.918 254.241 48.4062 254.676 48.4062 255.442V255.452C48.4062 256.434 47.4688 257.103 46.209 257.103Z" fill="white"></path>
<path fill-rule="evenodd" clip-rule="evenodd" d="M22 239C22 238.448 22.4477 238 23 238H41C41.5523 238 42 238.448 42 239C42 239.552 41.5523 240 41 240H23C22.4477 240 22 239.552 22 239Z" fill="#9DA0A8"></path>
<path fill-rule="evenodd" clip-rule="evenodd" d="M22 239C22 238.448 22.4477 238 23 238H35C35.5523 238 36 238.448 36 239C36 239.552 35.5523 240 35 240H23C22.4477 240 22 239.552 22 239Z" fill="#0180E5"></path>
<path fill-rule="evenodd" clip-rule="evenodd" d="M27.906 281C27.9139 281 27.9218 281 27.9297 281L36.094 281C36.2846 281 36.4692 281 36.6255 281.014C36.7971 281.029 36.9976 281.065 37.1985 281.177C37.4776 281.332 37.7018 281.578 37.8415 281.877C37.9414 282.091 37.9736 282.304 37.9874 282.488C38 282.657 38 282.857 37.9999 283.065L37.9999 284.797C37.9999 284.819 38 284.841 38 284.863C38.0002 285.2 38.0004 285.488 37.939 285.767C37.885 286.013 37.7958 286.248 37.6745 286.464C37.5362 286.71 37.3482 286.915 37.1297 287.153C37.1155 287.169 37.1011 287.184 37.0866 287.2L34.877 289.611C34.7194 289.783 34.632 289.88 34.5737 289.955C34.559 289.973 34.5494 289.987 34.5435 289.996C34.5433 289.999 34.5433 290.001 34.5435 290.004C34.5494 290.013 34.559 290.027 34.5737 290.045C34.632 290.12 34.7194 290.217 34.877 290.389L37.0866 292.8C37.1011 292.816 37.1155 292.831 37.1297 292.847C37.3482 293.085 37.5362 293.29 37.6745 293.536C37.7958 293.752 37.885 293.987 37.939 294.233C38.0004 294.512 38.0002 294.8 38 295.137C38 295.159 37.9999 295.181 37.9999 295.203L37.9999 296.935C38 297.143 38 297.343 37.9874 297.512C37.9736 297.696 37.9414 297.909 37.8415 298.123C37.7018 298.422 37.4776 298.668 37.1985 298.823C36.9976 298.935 36.7971 298.971 36.6255 298.986C36.4692 299 36.2846 299 36.094 299H27.906C27.7154 299 27.5308 299 27.3745 298.986C27.2029 298.971 27.0024 298.935 26.8015 298.823C26.5224 298.668 26.2982 298.422 26.1585 298.123C26.0586 297.909 26.0264 297.696 26.0126 297.512C26 297.343 26 297.143 26.0001 296.935L26.0001 295.203C26.0001 295.181 26 295.159 26 295.137C25.9998 294.8 25.9996 294.512 26.061 294.233C26.115 293.987 26.2042 293.752 26.3255 293.536C26.4638 293.29 26.6518 293.085 26.8703 292.847C26.8845 292.831 26.8989 292.816 26.9134 292.8L29.123 290.389C29.2806 290.217 29.368 290.12 29.4263 290.045C29.441 290.027 29.4506 290.013 29.4565 290.004C29.4567 290.001 29.4567 289.999 29.4565 289.996C29.4506 289.987 29.441 289.973 29.4263 289.955C29.368 289.88 29.2806 289.783 29.123 289.611L26.9134 287.2C26.8989 287.184 26.8845 287.169 26.8703 287.153C26.6518 286.915 26.4638 286.71 26.3255 286.464C26.2042 286.248 26.115 286.013 26.061 285.767C25.9996 285.488 25.9998 285.2 26 284.863C26 284.841 26.0001 284.819 26.0001 284.797V283.09C26.0001 283.082 26.0001 283.074 26.0001 283.065C26 282.857 26 282.657 26.0126 282.488C26.0264 282.304 26.0586 282.091 26.1585 281.877C26.2982 281.578 26.5224 281.332 26.8015 281.177C27.0024 281.065 27.2029 281.029 27.3745 281.014C27.5308 281 27.7154 281 27.906 281ZM33.1672 289.511C33.2351 289.283 33.3508 289.106 33.4613 288.964C33.5621 288.834 33.6921 288.693 33.8272 288.545L36.0531 286.116C36.3377 285.806 36.3947 285.736 36.4339 285.667C36.4778 285.588 36.5105 285.503 36.5303 285.412C36.5482 285.331 36.5527 285.235 36.5527 284.797V283.09C36.5527 282.847 36.5522 282.711 36.5448 282.612C36.543 282.589 36.5411 282.572 36.5396 282.561C36.5309 282.56 36.5196 282.558 36.5053 282.557C36.4166 282.549 36.2936 282.548 36.0703 282.548H27.9297C27.7064 282.548 27.5834 282.549 27.4947 282.557C27.4804 282.558 27.4691 282.56 27.4604 282.561C27.4589 282.572 27.457 282.589 27.4552 282.612C27.4478 282.711 27.4473 282.847 27.4473 283.09V284.797C27.4473 285.235 27.4518 285.331 27.4697 285.412C27.4895 285.503 27.5222 285.588 27.5661 285.667C27.6053 285.736 27.6623 285.806 27.9469 286.116L30.1728 288.545C30.3079 288.693 30.4379 288.834 30.5387 288.964C30.6492 289.106 30.7649 289.283 30.8328 289.511C30.9275 289.829 30.9275 290.171 30.8328 290.489C30.7649 290.717 30.6492 290.894 30.5387 291.036C30.4379 291.166 30.3079 291.307 30.1728 291.455L27.9469 293.884C27.6623 294.194 27.6053 294.264 27.5661 294.333C27.5222 294.412 27.4895 294.497 27.4697 294.588C27.4518 294.669 27.4473 294.765 27.4473 295.203V296.91C27.4473 297.153 27.4478 297.289 27.4552 297.388C27.457 297.411 27.4589 297.428 27.4604 297.439C27.4691 297.44 27.4804 297.442 27.4947 297.443C27.5834 297.451 27.7064 297.452 27.9297 297.452H36.0703C36.2936 297.452 36.4166 297.451 36.5053 297.443C36.5196 297.442 36.5309 297.44 36.5396 297.439C36.5411 297.428 36.543 297.411 36.5448 297.388C36.5522 297.289 36.5527 297.153 36.5527 296.91V295.203C36.5527 294.765 36.5482 294.669 36.5303 294.588C36.5105 294.497 36.4778 294.412 36.4339 294.333C36.3947 294.264 36.3377 294.194 36.0531 293.884L33.8272 291.455C33.6921 291.307 33.5621 291.166 33.4613 291.036C33.3508 290.894 33.2351 290.717 33.1672 290.489C33.0725 290.171 33.0725 289.829 33.1672 289.511ZM26.8058 282.223L27.4418 282.563L26.8058 282.223ZM29.0151 295.347C29.0151 294.919 29.3391 294.573 29.7387 294.573H34.2613C34.6609 294.573 34.9849 294.919 34.9849 295.347C34.9849 295.774 34.6609 296.121 34.2613 296.121H29.7387C29.3391 296.121 29.0151 295.774 29.0151 295.347Z" fill="white"></path>
<g data-figma-bg-blur-radius="4">
<rect x="27" y="270" width="25" height="14" rx="7" fill="#5A5D63" fill-opacity="0.6"></rect>
<path d="M32.0352 281L35.0967 275.062V274.984H31.4639V273.954H36.3662V275.004L33.3535 281H32.0352ZM39.3691 281V275.194H39.2861L37.5332 276.435V275.248L39.374 273.954H40.6289V281H39.3691ZM45.1699 281.176C43.4951 281.176 42.4893 279.755 42.4893 277.479V277.47C42.4893 275.194 43.4951 273.778 45.1699 273.778C46.8447 273.778 47.8604 275.194 47.8604 277.47V277.479C47.8604 279.755 46.8447 281.176 45.1699 281.176ZM45.1699 280.155C46.0684 280.155 46.5908 279.149 46.5908 277.479V277.47C46.5908 275.8 46.0684 274.804 45.1699 274.804C44.2715 274.804 43.7588 275.8 43.7588 277.47V277.479C43.7588 279.149 44.2715 280.155 45.1699 280.155Z" fill="white"></path>
</g>
<path d="M20.1836 321.171C18.1328 321.171 16.8926 319.74 16.8926 317.479V317.47C16.8926 315.204 18.1621 313.783 20.1836 313.783C22.21 313.783 23.4697 315.209 23.4697 317.47V317.479C23.4697 318.817 23.0303 319.867 22.249 320.497L23.1768 321.762H22.0488L21.4531 320.951C21.0771 321.098 20.6475 321.171 20.1836 321.171ZM20.1836 320.204C20.4131 320.204 20.6328 320.17 20.833 320.106L19.9248 318.876H21.0527L21.6143 319.638C22.0879 319.164 22.3516 318.412 22.3516 317.479V317.47C22.3516 315.805 21.5166 314.75 20.1836 314.75C18.8506 314.75 18.0107 315.805 18.0107 317.47V317.479C18.0107 319.13 18.8262 320.204 20.1836 320.204ZM26.5996 321.103C25.4033 321.103 24.7832 320.385 24.7832 319.13V315.697H25.8428V318.881C25.8428 319.76 26.165 320.194 26.9414 320.194C27.791 320.194 28.2451 319.662 28.2451 318.808V315.697H29.2998V321H28.2451V320.199H28.1621C27.9082 320.771 27.3711 321.103 26.5996 321.103ZM33.0547 321.103C31.502 321.103 30.5645 320.043 30.5645 318.363V318.358C30.5645 316.703 31.5215 315.595 33.001 315.595C34.4805 315.595 35.3887 316.664 35.3887 318.256V318.627H31.6289C31.6484 319.643 32.2051 320.233 33.0791 320.233C33.7578 320.233 34.1631 319.896 34.29 319.623L34.3096 319.584L35.3301 319.579L35.3203 319.623C35.1445 320.321 34.4121 321.103 33.0547 321.103ZM33.0059 316.464C32.2832 316.464 31.7363 316.957 31.6436 317.87H34.3389C34.2559 316.923 33.7236 316.464 33.0059 316.464ZM38.416 321.103C37.2197 321.103 36.5996 320.385 36.5996 319.13V315.697H37.6592V318.881C37.6592 319.76 37.9814 320.194 38.7578 320.194C39.6074 320.194 40.0615 319.662 40.0615 318.808V315.697H41.1162V321H40.0615V320.199H39.9785C39.7246 320.771 39.1875 321.103 38.416 321.103ZM44.8711 321.103C43.3184 321.103 42.3809 320.043 42.3809 318.363V318.358C42.3809 316.703 43.3379 315.595 44.8174 315.595C46.2969 315.595 47.2051 316.664 47.2051 318.256V318.627H43.4453C43.4648 319.643 44.0215 320.233 44.8955 320.233C45.5742 320.233 45.9795 319.896 46.1064 319.623L46.126 319.584L47.1465 319.579L47.1367 319.623C46.9609 320.321 46.2285 321.103 44.8711 321.103ZM44.8223 316.464C44.0996 316.464 43.5527 316.957 43.46 317.87H46.1553C46.0723 316.923 45.54 316.464 44.8223 316.464Z" fill="white"></path>
<rect x="25" y="355" width="6" height="1.5" rx="0.75" fill="white"></rect>
<path d="M38.0283 352.97C37.7354 352.677 37.2607 352.677 36.9678 352.97L34.1875 355.75L36.9678 358.53C37.2607 358.823 37.7354 358.823 38.0283 358.53C38.3212 358.237 38.3212 357.763 38.0283 357.47L37.0586 356.5H41.248C41.6623 356.5 41.998 356.164 41.998 355.75C41.998 355.336 41.6623 355 41.248 355H37.0586L38.0283 354.03C38.3212 353.737 38.3212 353.263 38.0283 352.97Z" fill="white"></path>
<path d="M32.1807 357.92C32.4736 357.627 32.9483 357.627 33.2412 357.92L36.0215 360.7L33.2412 363.48C32.9483 363.773 32.4736 363.773 32.1807 363.48C31.8878 363.187 31.8878 362.713 32.1807 362.42L33.1504 361.45H28.9609C28.5467 361.45 28.2109 361.114 28.2109 360.7C28.2109 360.286 28.5467 359.95 28.9609 359.95H33.1504L32.1807 358.98C31.8878 358.687 31.8878 358.213 32.1807 357.92Z" fill="white"></path>
<rect x="25" y="351" width="9" height="1.5" rx="0.75" fill="white"></rect>
<rect x="25" y="347" width="14" height="1.5" rx="0.75" fill="white"></rect>
<path d="M14.583 385.171C12.625 385.171 11.4043 383.755 11.4043 381.484V381.475C11.4043 379.199 12.6201 377.783 14.5781 377.783C16.1309 377.783 17.3223 378.765 17.5078 380.166L17.5029 380.19H16.4189V380.176C16.2139 379.312 15.5059 378.75 14.5781 378.75C13.3135 378.75 12.5225 379.8 12.5225 381.475V381.484C12.5225 383.154 13.3135 384.204 14.583 384.204C15.5156 384.204 16.2139 383.706 16.4141 382.91L16.4238 382.891H17.5078V382.92C17.3027 384.272 16.1553 385.171 14.583 385.171ZM18.875 385V377.617H19.9346V380.503H20.0127C20.2715 379.937 20.7793 379.595 21.5508 379.595C22.7373 379.595 23.3916 380.303 23.3916 381.567V385H22.3369V381.816C22.3369 380.938 21.9707 380.503 21.1943 380.503C20.418 380.503 19.9346 381.035 19.9346 381.89V385H18.875ZM26.3262 385.088C25.3154 385.088 24.5684 384.473 24.5684 383.511V383.501C24.5684 382.554 25.2812 382.002 26.5459 381.924L27.9814 381.841V381.372C27.9814 380.791 27.6152 380.469 26.8975 380.469C26.3115 380.469 25.9258 380.684 25.7988 381.06L25.7939 381.079H24.7734L24.7783 381.045C24.9053 380.176 25.7402 379.595 26.9463 379.595C28.2793 379.595 29.0312 380.259 29.0312 381.372V385H27.9814V384.248H27.8984C27.5859 384.785 27.0293 385.088 26.3262 385.088ZM25.623 383.467C25.623 383.955 26.0381 384.243 26.6094 384.243C27.4004 384.243 27.9814 383.726 27.9814 383.042V382.588L26.6875 382.671C25.9551 382.715 25.623 382.979 25.623 383.457V383.467ZM30.5254 385V379.697H31.585V380.503H31.6631C31.9219 379.937 32.4297 379.595 33.2012 379.595C34.3877 379.595 35.042 380.303 35.042 381.567V385H33.9873V381.816C33.9873 380.938 33.6211 380.503 32.8447 380.503C32.0684 380.503 31.585 381.035 31.585 381.89V385H30.5254ZM38.7627 386.87C37.415 386.87 36.585 386.279 36.458 385.396L36.4678 385.386H37.5371L37.542 385.396C37.6299 385.762 38.0596 386.021 38.7773 386.021C39.6514 386.021 40.1689 385.61 40.1689 384.888V383.843H40.0908C39.7686 384.419 39.1826 384.741 38.4551 384.741C37.0928 384.741 36.2529 383.691 36.2529 382.197V382.188C36.2529 380.674 37.0977 379.604 38.4746 379.604C39.2168 379.604 39.793 379.971 40.1006 380.566H40.1641V379.697H41.2188V384.893C41.2188 386.099 40.2666 386.87 38.7627 386.87ZM38.748 383.867C39.6465 383.867 40.1885 383.184 40.1885 382.192V382.183C40.1885 381.196 39.6416 380.503 38.748 380.503C37.8447 380.503 37.3369 381.196 37.3369 382.183V382.192C37.3369 383.179 37.8447 383.867 38.748 383.867ZM44.9688 385.103C43.416 385.103 42.4785 384.043 42.4785 382.363V382.358C42.4785 380.703 43.4355 379.595 44.915 379.595C46.3945 379.595 47.3027 380.664 47.3027 382.256V382.627H43.543C43.5625 383.643 44.1191 384.233 44.9932 384.233C45.6719 384.233 46.0771 383.896 46.2041 383.623L46.2236 383.584L47.2441 383.579L47.2344 383.623C47.0586 384.321 46.3262 385.103 44.9688 385.103ZM44.9199 380.464C44.1973 380.464 43.6504 380.957 43.5576 381.87H46.2529C46.1699 380.923 45.6377 380.464 44.9199 380.464ZM50.4912 385.103C49.2119 385.103 48.4014 384.502 48.2988 383.613V383.608H49.3584L49.3633 383.613C49.4951 384.014 49.8809 384.282 50.5107 384.282C51.165 384.282 51.6191 383.984 51.6191 383.55V383.54C51.6191 383.208 51.3701 382.983 50.7549 382.842L49.9102 382.646C48.9092 382.417 48.4453 381.963 48.4453 381.187V381.182C48.4453 380.259 49.3047 379.595 50.5059 379.595C51.7168 379.595 52.4932 380.2 52.5859 381.064V381.069H51.5752V381.06C51.4727 380.688 51.0967 380.41 50.501 380.41C49.9199 380.41 49.5 380.698 49.5 381.123V381.133C49.5 381.465 49.7441 381.67 50.3398 381.812L51.1797 382.002C52.2002 382.241 52.6885 382.676 52.6885 383.442V383.452C52.6885 384.434 51.751 385.103 50.4912 385.103Z" fill="white"></path>
<path d="M32 410C32.4362 410 32.8643 410.031 33.2822 410.089C33.3483 410.098 33.409 410.138 33.4443 410.197L34.6016 412.125C34.9322 412.676 35.5384 412.991 36.167 412.984L38.5254 412.96C38.634 412.959 38.7006 413.003 38.7256 413.032C39.2526 413.652 39.6818 414.344 39.9941 415.089C39.9985 415.099 40.0008 415.111 39.999 415.128C39.9971 415.145 39.9906 415.171 39.9727 415.199L38.7695 417.104C38.4224 417.654 38.4224 418.346 38.7695 418.896L39.9727 420.801C39.9906 420.829 39.9971 420.855 39.999 420.872C40.0008 420.889 39.9985 420.901 39.9941 420.911C39.6818 421.656 39.2526 422.348 38.7256 422.968C38.7006 422.997 38.634 423.041 38.5254 423.04L36.167 423.016C35.5384 423.009 34.9322 423.324 34.6016 423.875L33.4443 425.803C33.409 425.862 33.3483 425.902 33.2822 425.911C32.8643 425.969 32.4362 426 32 426C31.5638 426 31.1357 425.97 30.7178 425.911C30.6517 425.902 30.591 425.862 30.5557 425.803L29.3984 423.875C29.0678 423.324 28.4616 423.009 27.833 423.016L25.4746 423.04C25.366 423.041 25.2994 422.997 25.2744 422.968C24.7474 422.348 24.3182 421.656 24.0059 420.911C24.0015 420.901 23.9992 420.889 24.001 420.872C24.0029 420.855 24.0094 420.829 24.0273 420.801L25.2305 418.896C25.5776 418.346 25.5776 417.654 25.2305 417.104L24.0273 415.199C24.0094 415.171 24.0029 415.145 24.001 415.128C23.9992 415.111 24.0015 415.099 24.0059 415.089C24.3182 414.344 24.7474 413.652 25.2744 413.032C25.2994 413.003 25.366 412.959 25.4746 412.96L27.833 412.984C28.4616 412.991 29.0678 412.676 29.3984 412.125L30.5557 410.197C30.591 410.138 30.6517 410.098 30.7178 410.089C31.1357 410.031 31.5638 410 32 410Z" stroke="white" stroke-width="1.5"></path>
<path d="M34.9449 418C34.9449 419.627 33.6264 420.945 31.9999 420.945C30.3735 420.945 29.0549 419.627 29.0549 418C29.0549 416.374 30.3735 415.055 31.9999 415.055C33.6264 415.055 34.9449 416.374 34.9449 418Z" stroke="white" stroke-width="1.5"></path>
<path d="M17.1025 449L19.6465 441.954H20.8281L23.3721 449H22.2197L21.585 447.096H18.8896L18.25 449H17.1025ZM20.1934 443.189L19.1826 446.217H21.292L20.2764 443.189H20.1934ZM26.1162 449.088C24.7832 449.088 23.9189 448.019 23.9189 446.354V446.344C23.9189 444.664 24.7686 443.604 26.1162 443.604C26.8438 443.604 27.4639 443.966 27.7471 444.537H27.8301V441.617H28.8848V449H27.8301V448.165H27.7471C27.4395 448.746 26.8584 449.088 26.1162 449.088ZM26.4189 448.185C27.3027 448.185 27.8447 447.486 27.8447 446.354V446.344C27.8447 445.211 27.2979 444.513 26.4189 444.513C25.5303 444.513 24.998 445.206 24.998 446.344V446.354C24.998 447.491 25.5303 448.185 26.4189 448.185ZM30.4619 449V443.697H31.5215V444.513H31.5996C31.834 443.932 32.3516 443.595 33.0449 443.595C33.7676 443.595 34.2803 443.971 34.5146 444.542H34.5977C34.8662 443.971 35.4766 443.595 36.2139 443.595C37.2832 443.595 37.9082 444.239 37.9082 445.343V449H36.8535V445.597C36.8535 444.864 36.5215 444.503 35.8281 444.503C35.1543 444.503 34.71 445.006 34.71 445.646V449H33.6553V445.489C33.6553 444.884 33.2598 444.503 32.6348 444.503C31.9951 444.503 31.5215 445.05 31.5215 445.743V449H30.4619ZM39.9395 442.75C39.5732 442.75 39.2754 442.452 39.2754 442.091C39.2754 441.725 39.5732 441.427 39.9395 441.427C40.3008 441.427 40.6035 441.725 40.6035 442.091C40.6035 442.452 40.3008 442.75 39.9395 442.75ZM39.4072 449V443.697H40.4619V449H39.4072ZM42.0049 449V443.697H43.0645V444.503H43.1426C43.4014 443.937 43.9092 443.595 44.6807 443.595C45.8672 443.595 46.5215 444.303 46.5215 445.567V449H45.4668V445.816C45.4668 444.938 45.1006 444.503 44.3242 444.503C43.5479 444.503 43.0645 445.035 43.0645 445.89V449H42.0049Z" fill="white"></path>
<rect width="64" height="232" transform="translate(0 792)" fill="#1E1F22"></rect>
<path d="M36.9819 814.638C35.7465 813.588 34.1464 812.955 32.3985 812.955C28.4865 812.955 25.3152 816.126 25.3152 820.038C25.3152 823.95 28.4865 827.122 32.3985 827.122C34.1464 827.122 35.7465 826.489 36.9819 825.439M30.3152 828.788V811.288M33.7033 828.788V811.288" stroke="white" stroke-width="1.25" stroke-linecap="round" stroke-linejoin="round"></path>
<path d="M32 864C36.5195 864 37.6863 866.753 37.9873 868.173C38.083 868.626 37.6367 869 37.0762 869H26.9238C26.3633 869 25.917 868.626 26.0127 868.173C26.3137 866.753 27.4805 864 32 864ZM32 865.201C30.0037 865.201 28.8969 865.798 28.2588 866.416C27.8135 866.848 27.5399 867.347 27.3701 867.8H36.6299C36.4601 867.347 36.1865 866.848 35.7412 866.416C35.1031 865.798 33.9963 865.201 32 865.201ZM31.5303 851.057C31.7162 850.981 31.9245 850.981 32.1104 851.057L38.8018 853.792C39.2391 853.971 39.4118 854.5 39.1651 854.903L37.1309 858.221C36.9709 858.222 36.8103 858.222 36.6485 858.223C36.6507 858.242 36.653 858.259 36.6553 858.275L36.6572 858.284C36.6623 858.319 36.665 858.345 36.6651 858.369C36.6651 860.621 35.1174 862.497 33.0322 863.034C32.3583 863.207 31.41 863.234 30.6289 863.034C28.544 862.497 26.9981 860.621 26.9981 858.369C26.9981 858.346 27.0004 858.321 27.0049 858.289L27.0069 858.28C27.0088 858.266 27.0108 858.25 27.0127 858.234H26.5186L24.4766 854.903C24.2298 854.5 24.4026 853.971 24.8399 853.792L31.5303 851.057ZM28.5274 858.512C28.4999 858.549 28.4824 858.596 28.4824 858.649C28.4826 860.662 29.849 861.666 31.8633 861.666C33.8769 861.666 35.1934 860.603 35.1934 858.589C35.1934 858.471 35.2011 858.523 35.1934 858.5C33.3467 858.506 31.762 858.512 28.5274 858.512ZM32.0684 852.616C31.9518 852.568 31.8353 852.627 31.7188 852.674L26.5528 854.661C26.2784 854.773 26.1703 854.928 26.3252 855.179L27.5528 856.988C27.9866 856.988 28.9422 856.999 30.3057 856.997H30.3067C32.314 856.995 34.5826 857.01 35.9668 857.01L37.294 855.209C37.4489 854.959 37.3262 854.745 37.0518 854.634L32.0684 852.616ZM31.8633 854C32.4156 854 32.8633 854.448 32.8633 855C32.8632 855.552 32.4155 856 31.8633 856C31.3112 856 30.8634 855.552 30.8633 855C30.8633 854.448 31.3111 854 31.8633 854Z" fill="white"></path>
<path fill-rule="evenodd" clip-rule="evenodd" d="M30.3641 908.645C30.1314 908.311 30.0042 907.912 30.0042 907.5H34.0042C34.0042 907.912 33.8769 908.311 33.6442 908.645C33.5774 908.74 33.502 908.831 33.4184 908.914C33.0433 909.289 32.5346 909.5 32.0042 909.5C31.4737 909.5 30.965 909.289 30.5899 908.914C30.5063 908.831 30.4309 908.74 30.3641 908.645Z" fill="white"></path>
<path fill-rule="evenodd" clip-rule="evenodd" d="M27.9375 900C27.9375 900.243 27.8811 900.482 27.7726 900.699L25.7782 904.687H38.2219L36.2275 900.699C36.119 900.482 36.0625 900.243 36.0625 900V897.5C36.0625 895.591 35.4359 894.471 34.7187 893.817C33.9677 893.132 32.9611 892.815 32.01 892.813L32.0034 892.812C31.0517 892.815 30.0407 893.132 29.286 893.819C28.5658 894.474 27.9375 895.593 27.9375 897.5V900ZM32 891.25H32.0063L32.0125 891.25C34.5539 891.255 37.625 892.929 37.625 897.5V900L39.8706 904.491C40.2746 905.299 39.687 906.25 38.7835 906.25H25.2166C24.3131 906.25 23.7254 905.299 24.1295 904.491L26.375 900V897.5C26.375 892.929 29.4586 891.255 32 891.25Z" fill="white"></path>
<path d="M32.4629 931.012C37.2183 931.253 41 935.185 41 940L40.9883 940.463C40.7474 945.218 36.8153 949 32 949L31.5371 948.988C26.935 948.755 23.2449 945.065 23.0117 940.463L23 940C23 935.029 27.0294 931 32 931L32.4629 931.012ZM32 932.5C27.8579 932.5 24.5 935.858 24.5 940C24.5 944.142 27.8579 947.5 32 947.5C36.1421 947.5 39.5 944.142 39.5 940C39.5 935.858 36.1421 932.5 32 932.5ZM31.957 943C32.2569 943 32.5107 943.104 32.7178 943.311C32.9249 943.518 33.0293 943.771 33.0293 944.071C33.0293 944.371 32.9249 944.625 32.7178 944.832C32.5107 945.039 32.2569 945.143 31.957 945.143C31.6572 945.142 31.4033 945.039 31.1963 944.832C30.9893 944.625 30.8857 944.371 30.8857 944.071C30.8857 943.771 30.9893 943.518 31.1963 943.311C31.4033 943.103 31.6572 943 31.957 943ZM32.0859 934.857C32.8717 934.857 33.5614 935.089 34.1543 935.554C34.7469 936.018 35.043 936.614 35.043 937.343C35.043 937.8 34.9252 938.215 34.6895 938.586C34.4538 938.957 34.1713 939.3 33.8428 939.614C33.6143 939.828 33.4001 940.053 33.2002 940.289C33.0002 940.525 32.8716 940.793 32.8145 941.093C32.7716 941.307 32.6754 941.486 32.5254 941.629C32.3754 941.772 32.1927 941.843 31.9785 941.843C31.7788 941.843 31.6039 941.775 31.4541 941.64C31.3041 941.504 31.2286 941.336 31.2285 941.136C31.2285 940.707 31.3536 940.321 31.6035 939.979C31.8535 939.636 32.1431 939.321 32.4717 939.035C32.7144 938.821 32.9322 938.592 33.125 938.35C33.3177 938.107 33.414 937.829 33.4141 937.515C33.4141 937.172 33.2826 936.886 33.0186 936.657C32.7543 936.429 32.4431 936.314 32.0859 936.314C31.8288 936.314 31.5824 936.371 31.3467 936.485C31.111 936.6 30.9149 936.764 30.7578 936.979C30.615 937.179 30.436 937.3 30.2217 937.343C30.0075 937.386 29.8005 937.35 29.6006 937.235C29.4434 937.135 29.3463 936.989 29.3105 936.796C29.275 936.603 29.3074 936.421 29.4072 936.25C29.6643 935.779 30.0395 935.429 30.5322 935.2C31.0251 934.972 31.5431 934.857 32.0859 934.857Z" fill="white"></path>
<rect x="16" y="976" width="32" height="32" rx="16" fill="url(#pattern0_2110_81587)"></rect>
</g>
<defs>
<filter id="filter0_f_2110_81587" x="-301" y="-127" width="444.565" height="444.565" filterUnits="userSpaceOnUse" color-interpolation-filters="sRGB">
<feFlood flood-opacity="0" result="BackgroundImageFix"></feFlood>
<feBlend mode="normal" in="SourceGraphic" in2="BackgroundImageFix" result="shape"></feBlend>
<feGaussianBlur stdDeviation="40" result="effect1_foregroundBlur_2110_81587"></feGaussianBlur>
</filter>
<clipPath id="bgblur_1_2110_81587_clip_path" transform="translate(-28 -202)"><rect x="32" y="206" width="20" height="14" rx="7"></rect>
</clipPath><clipPath id="bgblur_2_2110_81587_clip_path" transform="translate(-23 -266)"><rect x="27" y="270" width="25" height="14" rx="7"></rect>
</clipPath><pattern id="pattern0_2110_81587" patternContentUnits="objectBoundingBox" width="1" height="1">
<use xlink:href="#image0_2110_81587" transform="scale(0.005)"></use>
</pattern>
<linearGradient id="paint0_linear_2110_81587" x1="16.7941" y1="56.2439" x2="50.2031" y2="40.7546" gradientUnits="userSpaceOnUse">
<stop offset="0.1" stop-color="#3BEA62"></stop>
<stop offset="0.59" stop-color="#6B57FF"></stop>
</linearGradient>
<linearGradient id="paint1_linear_2110_81587" x1="49.4578" y1="53.2972" x2="12.8356" y2="16.675" gradientUnits="userSpaceOnUse">
<stop offset="0.26" stop-color="#6B57FF"></stop>
<stop offset="0.65" stop-color="#07C3F2"></stop>
</linearGradient>
<clipPath id="clip0_2110_81587">
<rect width="64" height="1024" fill="white"></rect>
</clipPath>
<image id="image0_2110_81587" width="200" height="200" preserveAspectRatio="none"></image>
</defs>
</svg>